<?xml version="1.0" standalone="no"?>
<!DOCTYPE svg PUBLIC "-//W3C//DTD SVG 20010904//EN"
 "http://www.w3.org/TR/2001/REC-SVG-20010904/DTD/svg10.dtd">
<svg version="1.0" xmlns="http://www.w3.org/2000/svg"
 width="200.000000pt" height="200.000000pt" viewBox="0 0 200.000000 200.000000"
 preserveAspectRatio="xMidYMid meet">

<g transform="translate(0.000000,200.000000) scale(0.100000,-0.100000)"
fill="#000000" stroke="none">
<path d="M0 1000 l0 -1000 1000 0 1000 0 0 1000 0 1000 -1000 0 -1000 0 0
-1000z m685 161 l49 -80 42 77 42 77 83 3 c70 2 86 0 96 -14 10 -13 13 -74 13
-226 0 -258 5 -248 -133 -248 -59 0 -99 5 -110 13 -13 9 -17 32 -19 107 l-3
95 -37 -71 c-41 -78 -60 -99 -82 -91 -8 3 -35 41 -61 84 l-46 78 3 -105 c3
-103 3 -105 -20 -108 -50 -7 -52 4 -52 238 0 120 3 225 6 234 5 13 23 16 93
16 l86 0 50 -79z m780 54 c0 -17 -7 -20 -40 -20 -22 0 -55 3 -72 7 l-33 8 0
-45 0 -45 71 0 c67 0 70 -1 67 -22 -3 -21 -9 -23 -70 -26 l-68 -3 0 -150 0
-149 -26 -10 c-34 -13 -180 -13 -205 0 -18 10 -19 23 -19 230 0 120 3 226 6
234 6 14 30 16 198 14 183 -3 191 -4 191 -23z"/>
<path d="M594 1205 c9 -25 96 -164 106 -170 5 -3 11 -2 14 3 6 11 -96 174
-114 180 -9 3 -11 -1 -6 -13z"/>
<path d="M950 1000 c0 -140 4 -220 10 -220 6 0 10 80 10 220 0 140 -4 220 -10
220 -6 0 -10 -80 -10 -220z"/>
<path d="M1270 1000 c0 -140 4 -220 10 -220 6 0 10 80 10 220 0 140 -4 220
-10 220 -6 0 -10 -80 -10 -220z"/>
</g>
</svg>
