<?xml version="1.0" standalone="no"?>
<!DOCTYPE svg PUBLIC "-//W3C//DTD SVG 20010904//EN"
 "http://www.w3.org/TR/2001/REC-SVG-20010904/DTD/svg10.dtd">
<svg version="1.0" xmlns="http://www.w3.org/2000/svg"
 width="200.000000pt" height="200.000000pt" viewBox="0 0 200.000000 200.000000"
 preserveAspectRatio="xMidYMid meet">

<g transform="translate(0.000000,200.000000) scale(0.100000,-0.100000)"
fill="#000000" stroke="none">
<path d="M0 1000 l0 -1000 1000 0 1000 0 0 1000 0 1000 -1000 0 -1000 0 0
-1000z m626 242 c6 -4 33 -42 60 -84 l49 -77 40 76 c44 84 58 93 141 93 41 0
59 -5 74 -20 19 -19 20 -33 20 -230 0 -260 5 -250 -133 -250 -59 0 -99 5 -110
13 -13 9 -17 32 -19 107 l-3 95 -37 -71 c-41 -78 -60 -99 -82 -91 -8 3 -35 41
-61 84 l-46 78 3 -105 c3 -103 3 -105 -20 -108 -50 -7 -52 3 -52 244 0 263 -3
254 98 254 37 0 72 -4 78 -8z m834 -7 c7 -8 9 -22 6 -31 -5 -14 -16 -16 -60
-10 -30 3 -61 9 -70 12 -13 5 -16 -2 -16 -40 l0 -46 71 0 c67 0 70 -1 67 -22
-3 -21 -9 -23 -70 -26 l-68 -3 0 -150 0 -149 -26 -10 c-34 -13 -180 -13 -205
0 -18 10 -19 23 -19 233 0 122 4 227 8 233 13 20 35 22 203 23 136 1 169 -2
179 -14z"/>
<path d="M594 1205 c9 -25 96 -164 106 -170 5 -3 11 -2 14 3 6 11 -96 174
-114 180 -9 3 -11 -1 -6 -13z"/>
<path d="M950 1000 c0 -140 4 -220 10 -220 6 0 10 80 10 220 0 140 -4 220 -10
220 -6 0 -10 -80 -10 -220z"/>
<path d="M1270 999 c0 -144 3 -218 10 -214 6 4 10 88 10 221 0 136 -4 214 -10
214 -6 0 -10 -80 -10 -221z"/>
</g>
</svg>
