<?xml version="1.0" standalone="no"?>
<!DOCTYPE svg PUBLIC "-//W3C//DTD SVG 20010904//EN"
 "http://www.w3.org/TR/2001/REC-SVG-20010904/DTD/svg10.dtd">
<svg version="1.0" xmlns="http://www.w3.org/2000/svg"
 width="200.000000pt" height="200.000000pt" viewBox="0 0 200.000000 200.000000"
 preserveAspectRatio="xMidYMid meet">

<g transform="translate(0.000000,200.000000) scale(0.100000,-0.100000)"
fill="#000000" stroke="none">
<path d="M456 1224 c-3 -9 -6 -114 -6 -234 0 -234 2 -245 52 -238 23 3 23 5
20 108 l-3 105 46 -78 c26 -43 53 -81 61 -84 22 -8 41 13 82 91 l37 71 3 -95
c2 -75 6 -98 19 -107 11 -8 51 -13 110 -13 138 0 133 -10 133 248 0 152 -3
213 -13 226 -10 14 -26 16 -96 14 l-83 -3 -42 -77 -42 -77 -49 80 -50 79 -86
0 c-70 0 -88 -3 -93 -16z m210 -94 c29 -46 50 -88 48 -92 -9 -14 -20 -1 -68
75 -54 88 -65 112 -46 105 8 -2 38 -42 66 -88z m304 -130 c0 -140 -4 -220 -10
-220 -6 0 -10 80 -10 220 0 140 4 220 10 220 6 0 10 -80 10 -220z"/>
<path d="M1076 1224 c-3 -8 -6 -114 -6 -234 0 -207 1 -220 19 -230 25 -13 171
-13 205 0 l26 10 0 149 0 150 68 3 c61 3 67 5 70 26 3 21 0 22 -67 22 l-71 0
0 45 0 45 33 -8 c17 -4 50 -7 72 -7 33 0 40 3 40 20 0 19 -8 20 -191 23 -168
2 -192 0 -198 -14z m214 -224 c0 -140 -4 -220 -10 -220 -6 0 -10 80 -10 220 0
140 4 220 10 220 6 0 10 -80 10 -220z"/>
</g>
</svg>
